<svg xmlns="http://www.w3.org/2000/svg" class="d3-component" viewBox="-70 0 1830 1950" style="font-family: sans-serif; font-size: 1.25rem;" width="2000" height="2000"><path fill="none" stroke="#ccc" stroke-width="3px" d="M 180 1314.1304347826087
              C 90 1314.1304347826087,
                90 1356.5217391304348,
                0 1356.5217391304348"></path><path fill="none" stroke="#ccc" stroke-width="3px" d="M 180 1398.9130434782608
              C 90 1398.9130434782608,
                90 1356.5217391304348,
                0 1356.5217391304348"></path><path fill="none" stroke="#ccc" stroke-width="3px" d="M 360 763.0434782608695
              C 270 763.0434782608695,
                270 1314.1304347826087,
                180 1314.1304347826087"></path><path fill="none" stroke="#ccc" stroke-width="3px" d="M 360 1186.9565217391305
              C 270 1186.9565217391305,
                270 1314.1304347826087,
                180 1314.1304347826087"></path><path fill="none" stroke="#ccc" stroke-width="3px" d="M 360 1526.086956521739
              C 270 1526.086956521739,
                270 1314.1304347826087,
                180 1314.1304347826087"></path><path fill="none" stroke="#ccc" stroke-width="3px" d="M 360 1610.8695652173913
              C 270 1610.8695652173913,
                270 1314.1304347826087,
                180 1314.1304347826087"></path><path fill="none" stroke="#ccc" stroke-width="3px" d="M 360 1695.6521739130435
              C 270 1695.6521739130435,
                270 1314.1304347826087,
                180 1314.1304347826087"></path><path fill="none" stroke="#ccc" stroke-width="3px" d="M 360 1780.4347826086955
              C 270 1780.4347826086955,
                270 1314.1304347826087,
                180 1314.1304347826087"></path><path fill="none" stroke="#ccc" stroke-width="3px" d="M 360 1865.2173913043478
              C 270 1865.2173913043478,
                270 1314.1304347826087,
                180 1314.1304347826087"></path><path fill="none" stroke="#ccc" stroke-width="3px" d="M 540 551.0869565217391
              C 450 551.0869565217391,
                450 763.0434782608695,
                360 763.0434782608695"></path><path fill="none" stroke="#ccc" stroke-width="3px" d="M 540 635.8695652173913
              C 450 635.8695652173913,
                450 763.0434782608695,
                360 763.0434782608695"></path><path fill="none" stroke="#ccc" stroke-width="3px" d="M 540 720.6521739130435
              C 450 720.6521739130435,
                450 763.0434782608695,
                360 763.0434782608695"></path><path fill="none" stroke="#ccc" stroke-width="3px" d="M 540 805.4347826086956
              C 450 805.4347826086956,
                450 763.0434782608695,
                360 763.0434782608695"></path><path fill="none" stroke="#ccc" stroke-width="3px" d="M 540 890.2173913043478
              C 450 890.2173913043478,
                450 763.0434782608695,
                360 763.0434782608695"></path><path fill="none" stroke="#ccc" stroke-width="3px" d="M 540 975
              C 450 975,
                450 763.0434782608695,
                360 763.0434782608695"></path><path fill="none" stroke="#ccc" stroke-width="3px" d="M 540 1144.5652173913043
              C 450 1144.5652173913043,
                450 1186.9565217391305,
                360 1186.9565217391305"></path><path fill="none" stroke="#ccc" stroke-width="3px" d="M 540 1229.3478260869565
              C 450 1229.3478260869565,
                450 1186.9565217391305,
                360 1186.9565217391305"></path><path fill="none" stroke="#ccc" stroke-width="3px" d="M 540 1398.9130434782608
              C 450 1398.9130434782608,
                450 1526.086956521739,
                360 1526.086956521739"></path><path fill="none" stroke="#ccc" stroke-width="3px" d="M 540 1483.695652173913
              C 450 1483.695652173913,
                450 1526.086956521739,
                360 1526.086956521739"></path><path fill="none" stroke="#ccc" stroke-width="3px" d="M 540 1568.4782608695652
              C 450 1568.4782608695652,
                450 1526.086956521739,
                360 1526.086956521739"></path><path fill="none" stroke="#ccc" stroke-width="3px" d="M 540 1653.2608695652173
              C 450 1653.2608695652173,
                450 1526.086956521739,
                360 1526.086956521739"></path><path fill="none" stroke="#ccc" stroke-width="3px" d="M 720 508.695652173913
              C 630 508.695652173913,
                630 551.0869565217391,
                540 551.0869565217391"></path><path fill="none" stroke="#ccc" stroke-width="3px" d="M 720 593.4782608695652
              C 630 593.4782608695652,
                630 551.0869565217391,
                540 551.0869565217391"></path><path fill="none" stroke="#ccc" stroke-width="3px" d="M 720 975
              C 630 975,
                630 975,
                540 975"></path><path fill="none" stroke="#ccc" stroke-width="3px" d="M 900 169.56521739130434
              C 810 169.56521739130434,
                810 593.4782608695652,
                720 593.4782608695652"></path><path fill="none" stroke="#ccc" stroke-width="3px" d="M 900 339.1304347826087
              C 810 339.1304347826087,
                810 593.4782608695652,
                720 593.4782608695652"></path><path fill="none" stroke="#ccc" stroke-width="3px" d="M 900 635.8695652173913
              C 810 635.8695652173913,
                810 593.4782608695652,
                720 593.4782608695652"></path><path fill="none" stroke="#ccc" stroke-width="3px" d="M 900 734.7826086956522
              C 810 734.7826086956522,
                810 593.4782608695652,
                720 593.4782608695652"></path><path fill="none" stroke="#ccc" stroke-width="3px" d="M 900 833.6956521739131
              C 810 833.6956521739131,
                810 593.4782608695652,
                720 593.4782608695652"></path><path fill="none" stroke="#ccc" stroke-width="3px" d="M 900 932.6086956521739
              C 810 932.6086956521739,
                810 593.4782608695652,
                720 593.4782608695652"></path><path fill="none" stroke="#ccc" stroke-width="3px" d="M 900 1017.391304347826
              C 810 1017.391304347826,
                810 593.4782608695652,
                720 593.4782608695652"></path><path fill="none" stroke="#ccc" stroke-width="3px" d="M 1080 169.56521739130434
              C 990 169.56521739130434,
                990 169.56521739130434,
                900 169.56521739130434"></path><path fill="none" stroke="#ccc" stroke-width="3px" d="M 1080 339.1304347826087
              C 990 339.1304347826087,
                990 339.1304347826087,
                900 339.1304347826087"></path><path fill="none" stroke="#ccc" stroke-width="3px" d="M 1080 508.695652173913
              C 990 508.695652173913,
                990 635.8695652173913,
                900 635.8695652173913"></path><path fill="none" stroke="#ccc" stroke-width="3px" d="M 1080 593.4782608695652
              C 990 593.4782608695652,
                990 635.8695652173913,
                900 635.8695652173913"></path><path fill="none" stroke="#ccc" stroke-width="3px" d="M 1080 678.2608695652174
              C 990 678.2608695652174,
                990 635.8695652173913,
                900 635.8695652173913"></path><path fill="none" stroke="#ccc" stroke-width="3px" d="M 1080 763.0434782608695
              C 990 763.0434782608695,
                990 635.8695652173913,
                900 635.8695652173913"></path><path fill="none" stroke="#ccc" stroke-width="3px" d="M 1080 932.6086956521739
              C 990 932.6086956521739,
                990 932.6086956521739,
                900 932.6086956521739"></path><path fill="none" stroke="#ccc" stroke-width="3px" d="M 1260 169.56521739130434
              C 1170 169.56521739130434,
                1170 169.56521739130434,
                1080 169.56521739130434"></path><path fill="none" stroke="#ccc" stroke-width="3px" d="M 1260 508.695652173913
              C 1170 508.695652173913,
                1170 508.695652173913,
                1080 508.695652173913"></path><path fill="none" stroke="#ccc" stroke-width="3px" d="M 1260 678.2608695652174
              C 1170 678.2608695652174,
                1170 678.2608695652174,
                1080 678.2608695652174"></path><path fill="none" stroke="#ccc" stroke-width="3px" d="M 1440 84.78260869565217
              C 1350 84.78260869565217,
                1350 169.56521739130434,
                1260 169.56521739130434"></path><path fill="none" stroke="#ccc" stroke-width="3px" d="M 1440 169.56521739130434
              C 1350 169.56521739130434,
                1350 169.56521739130434,
                1260 169.56521739130434"></path><path fill="none" stroke="#ccc" stroke-width="3px" d="M 1440 254.3478260869565
              C 1350 254.3478260869565,
                1350 169.56521739130434,
                1260 169.56521739130434"></path><path fill="none" stroke="#ccc" stroke-width="3px" d="M 1440 678.2608695652174
              C 1350 678.2608695652174,
                1350 678.2608695652174,
                1260 678.2608695652174"></path><path fill="none" stroke="#ccc" stroke-width="3px" d="M 1620 84.78260869565217
              C 1530 84.78260869565217,
                1530 84.78260869565217,
                1440 84.78260869565217"></path><g transform="translate(50,50)"></g><g class="node" transform="translate(0, 1356.521728515625)"><circle class="node" r="15" cursor="pointer" style="fill: rgb(215, 215, 215); stroke: rgb(186, 186, 186);"></circle><text dy=".35em" x="-20" text-anchor="end" fill="#777" font-weight="700">19A (B)</text></g><g class="node" transform="translate(180, 1314.1304931640625)"><circle class="node" r="15" cursor="pointer" style="fill: rgb(198, 198, 198); stroke: rgb(171, 171, 171);"></circle><text dy=".35em" x="-20" text-anchor="end" fill="#777" font-weight="700">20A (B.1)</text></g><g class="node" transform="translate(180, 1398.9130859375)"><circle class="node" r="15" cursor="pointer" style="fill: rgb(206, 206, 206); stroke: rgb(179, 179, 179);"></circle><text dy=".35em" x="20" text-anchor="start" fill="#777" font-weight="700">19B (A)</text></g><g class="node" transform="translate(360, 763.04345703125)"><circle class="node" r="15" cursor="pointer" style="fill: rgb(189, 189, 189); stroke: rgb(164, 164, 164);"></circle><text dy=".35em" x="-20" text-anchor="end" fill="#777" font-weight="700">20B (B.1.1)</text></g><g class="node" transform="translate(360, 1186.95654296875)"><circle class="node" r="15" cursor="pointer" style="fill: rgb(69, 64, 212); stroke: rgb(60, 56, 183);"></circle><text dy=".35em" x="-20" text-anchor="end" fill="#777" font-weight="700">21A (Delta, B.1.617.2)</text></g><g class="node" transform="translate(360, 1526.0869140625)"><circle class="node" r="15" cursor="pointer" style="fill: rgb(180, 180, 180); stroke: rgb(156, 156, 156);"></circle><text dy=".35em" x="-20" text-anchor="end" fill="#777" font-weight="700">20C</text></g><g class="node" transform="translate(360, 1610.8695068359375)"><circle class="node" r="15" cursor="pointer" style="fill: rgb(105, 184, 168); stroke: rgb(91, 159, 145);"></circle><text dy=".35em" x="20" text-anchor="start" fill="#777" font-weight="700">21H (Mu, B.1.621)</text></g><g class="node" transform="translate(360, 1695.6522216796875)"><circle class="node" r="15" cursor="pointer" style="fill: rgb(77, 145, 213); stroke: rgb(67, 126, 184);"></circle><text dy=".35em" x="20" text-anchor="start" fill="#777" font-weight="700">21D (Eta, B.1.525)</text></g><g class="node" transform="translate(360, 1780.434814453125)"><circle class="node" r="15" cursor="pointer" style="fill: rgb(70, 116, 221); stroke: rgb(61, 101, 192);"></circle><text dy=".35em" x="20" text-anchor="start" fill="#777" font-weight="700">21B (Kappa, B.1.617.1)</text></g><g class="node" transform="translate(360, 1865.2174072265625)"><circle class="node" r="15" cursor="pointer" style="fill: rgb(163, 163, 163); stroke: rgb(142, 142, 142);"></circle><text dy=".35em" x="20" text-anchor="start" fill="#777" font-weight="700">20E (EU1, B.1.177)</text></g><g class="node" transform="translate(540, 551.0869750976562)"><circle class="node" r="15" cursor="pointer" style="fill: rgb(135, 198, 127); stroke: rgb(117, 171, 110);"></circle><text dy=".35em" x="-20" text-anchor="end" fill="#777" font-weight="700">21M (Omicron, B.1.1.529)</text></g><g class="node" transform="translate(540, 635.8695678710938)"><circle class="node" r="15" cursor="pointer" style="fill: rgb(83, 158, 204); stroke: rgb(72, 137, 177);"></circle><text dy=".35em" x="20" text-anchor="start" fill="#777" font-weight="700">21E (Theta, P.3)</text></g><g class="node" transform="translate(540, 720.6521606445312)"><circle class="node" r="15" cursor="pointer" style="fill: rgb(75, 49, 199); stroke: rgb(65, 43, 172);"></circle><text dy=".35em" x="20" text-anchor="start" fill="#777" font-weight="700">20J (Gamma, P.1)</text></g><g class="node" transform="translate(540, 805.4347534179688)"><circle class="node" r="15" cursor="pointer" style="fill: rgb(84, 35, 186); stroke: rgb(73, 31, 161);"></circle><text dy=".35em" x="20" text-anchor="start" fill="#777" font-weight="700">20I (Alpha, B.1.1.7)</text></g><g class="node" transform="translate(540, 890.2174072265625)"><circle class="node" r="15" cursor="pointer" style="fill: rgb(155, 155, 155); stroke: rgb(134, 134, 134);"></circle><text dy=".35em" x="20" text-anchor="start" fill="#777" font-weight="700">20F (D.2)</text></g><g class="node" transform="translate(540, 975)"><circle class="node" r="15" cursor="pointer" style="fill: rgb(172, 172, 172); stroke: rgb(149, 149, 149);"></circle><text dy=".35em" x="-20" text-anchor="end" fill="#777" font-weight="700">20D (B.1.1.1)</text></g><g class="node" transform="translate(540, 1144.565185546875)"><circle class="node" r="15" cursor="pointer" style="fill: rgb(68, 82, 218); stroke: rgb(59, 71, 189);"></circle><text dy=".35em" x="20" text-anchor="start" fill="#777" font-weight="700">21I (Delta)</text></g><g class="node" transform="translate(540, 1229.3477783203125)"><circle class="node" r="15" cursor="pointer" style="fill: rgb(67, 100, 223); stroke: rgb(58, 87, 194);"></circle><text dy=".35em" x="20" text-anchor="start" fill="#777" font-weight="700">21J (Delta)</text></g><g class="node" transform="translate(540, 1398.9130859375)"><circle class="node" r="15" cursor="pointer" style="fill: rgb(89, 168, 192); stroke: rgb(77, 145, 167);"></circle><text dy=".35em" x="20" text-anchor="start" fill="#777" font-weight="700">21F (Iota, B.1.526)</text></g><g class="node" transform="translate(540, 1483.6956787109375)"><circle class="node" r="15" cursor="pointer" style="fill: rgb(73, 132, 220); stroke: rgb(63, 115, 191);"></circle><text dy=".35em" x="20" text-anchor="start" fill="#777" font-weight="700">21C (Epsilon, B.1.427/429)</text></g><g class="node" transform="translate(540, 1568.478271484375)"><circle class="node" r="15" cursor="pointer" style="fill: rgb(101, 31, 169); stroke: rgb(88, 27, 146);"></circle><text dy=".35em" x="20" text-anchor="start" fill="#777" font-weight="700">20H (Beta, B.1.351)</text></g><g class="node" transform="translate(540, 1653.2608642578125)"><circle class="node" r="15" cursor="pointer" style="fill: rgb(146, 146, 146); stroke: rgb(127, 127, 127);"></circle><text dy=".35em" x="20" text-anchor="start" fill="#777" font-weight="700">20G (B.1.2)</text></g><g class="node" transform="translate(720, 508.6956481933594)"><circle class="node" r="15" cursor="pointer" style="fill: rgb(114, 190, 154); stroke: rgb(99, 165, 133);"></circle><text dy=".35em" x="20" text-anchor="start" fill="#777" font-weight="700">21K (Omicron, BA.1)</text></g><g class="node" transform="translate(720, 593.478271484375)"><circle class="node" r="15" cursor="pointer" style="fill: rgb(125, 194, 140); stroke: rgb(108, 169, 121);"></circle><text dy=".35em" x="-20" text-anchor="end" fill="#777" font-weight="700">21L (Omicron, BA.2)</text></g><g class="node" transform="translate(720, 975)"><circle class="node" r="15" cursor="pointer" style="fill: rgb(97, 177, 180); stroke: rgb(84, 154, 156);"></circle><text dy=".35em" x="20" text-anchor="start" fill="#777" font-weight="700">21G (Lambda, C.37)</text></g><g class="node" transform="translate(900, 169.56521606445312)"><circle class="node" r="15" cursor="pointer" style="fill: rgb(242, 85, 45); stroke: rgb(210, 74, 39);"></circle><text dy=".35em" x="-20" text-anchor="end" fill="#777" font-weight="700">23I (BA.2.86)</text></g><g class="node" transform="translate(900, 339.13043212890625)"><circle class="node" r="15" cursor="pointer" style="fill: rgb(184, 203, 87); stroke: rgb(159, 176, 75);"></circle><text dy=".35em" x="-20" text-anchor="end" fill="#777" font-weight="700">22D (BA.2.75)</text></g><g class="node" transform="translate(900, 635.8695678710938)"><circle class="node" r="15" cursor="pointer" style="fill: rgb(208, 200, 75); stroke: rgb(181, 173, 65);"></circle><text dy=".35em" x="-20" text-anchor="end" fill="#777" font-weight="700">22F (XBB)</text></g><g class="node" transform="translate(900, 734.7825927734375)"><circle class="node" r="15" cursor="pointer" style="fill: rgb(208, 200, 75); stroke: rgb(181, 173, 65);"></circle><text dy=".35em" x="20" text-anchor="start" fill="#777" font-weight="700">22C (BA.2.12.1)</text></g><g class="node" transform="translate(900, 833.6956787109375)"><circle class="node" r="15" cursor="pointer" style="fill: rgb(172, 204, 96); stroke: rgb(149, 177, 83);"></circle><text dy=".35em" x="20" text-anchor="start" fill="#777" font-weight="700">24D (XDV)</text></g><g class="node" transform="translate(900, 932.6087036132812)"><circle class="node" r="15" cursor="pointer" style="fill: rgb(159, 203, 104); stroke: rgb(138, 176, 90);"></circle><text dy=".35em" x="-20" text-anchor="end" fill="#777" font-weight="700">22B (BA.5)</text></g><g class="node" transform="translate(900, 1017.3912963867188)"><circle class="node" r="15" cursor="pointer" style="fill: rgb(147, 201, 115); stroke: rgb(128, 174, 100);"></circle><text dy=".35em" x="20" text-anchor="start" fill="#777" font-weight="700">22A (BA.4)</text></g><g class="node" transform="translate(1080, 169.56521606445312)"><circle class="node" r="15" cursor="pointer" style="fill: rgb(238, 64, 41); stroke: rgb(207, 56, 35);"></circle><text dy=".35em" x="-20" text-anchor="end" fill="#777" font-weight="700">24A (JN.1)</text></g><g class="node" transform="translate(1080, 339.13043212890625)"><circle class="node" r="15" cursor="pointer" style="fill: rgb(237, 183, 64); stroke: rgb(206, 158, 56);"></circle><text dy=".35em" x="20" text-anchor="start" fill="#777" font-weight="700">23C (CH.1.1)</text></g><g class="node" transform="translate(1080, 508.6956481933594)"><circle class="node" r="15" cursor="pointer" style="fill: rgb(219, 197, 71); stroke: rgb(190, 170, 61);"></circle><text dy=".35em" x="-20" text-anchor="end" fill="#777" font-weight="700">23A (XBB.1.5)</text></g><g class="node" transform="translate(1080, 593.478271484375)"><circle class="node" r="15" cursor="pointer" style="fill: rgb(229, 190, 68); stroke: rgb(198, 165, 59);"></circle><text dy=".35em" x="20" text-anchor="start" fill="#777" font-weight="700">23B (XBB.1.16)</text></g><g class="node" transform="translate(1080, 678.2608642578125)"><circle class="node" r="15" cursor="pointer" style="fill: rgb(242, 171, 62); stroke: rgb(210, 148, 54);"></circle><text dy=".35em" x="-20" text-anchor="end" fill="#777" font-weight="700">23D (XBB.1.9)</text></g><g class="node" transform="translate(1080, 763.04345703125)"><circle class="node" r="15" cursor="pointer" style="fill: rgb(247, 160, 59); stroke: rgb(214, 139, 51);"></circle><text dy=".35em" x="20" text-anchor="start" fill="#777" font-weight="700">23E (XBB.2.3)</text></g><g class="node" transform="translate(1080, 932.6087036132812)"><circle class="node" r="15" cursor="pointer" style="fill: rgb(197, 203, 81); stroke: rgb(170, 176, 70);"></circle><text dy=".35em" x="20" text-anchor="start" fill="#777" font-weight="700">22E (BQ.1)</text></g><g class="node" transform="translate(1260, 169.56521606445312)"><circle class="node" r="15" cursor="pointer" style="fill: rgb(235, 43, 38); stroke: rgb(204, 37, 33);"></circle><text dy=".35em" x="-20" text-anchor="end" fill="#777" font-weight="700">24B (JN.1.11.1)</text></g><g class="node" transform="translate(1260, 508.6956481933594)"><circle class="node" r="15" cursor="pointer" style="fill: rgb(242, 85, 45); stroke: rgb(210, 74, 39);"></circle><text dy=".35em" x="20" text-anchor="start" fill="#777" font-weight="700">23G (XBB.1.5.70)</text></g><g class="node" transform="translate(1260, 678.2608642578125)"><circle class="node" r="15" cursor="pointer" style="fill: rgb(247, 143, 56); stroke: rgb(214, 124, 48);"></circle><text dy=".35em" x="-20" text-anchor="end" fill="#777" font-weight="700">23F (EG.5.1)</text></g><g class="node" transform="translate(1440, 84.78260803222656)"><circle class="node" r="15" cursor="pointer" style="fill: rgb(175, 42, 10); stroke: rgb(152, 36, 8);"></circle><text dy=".35em" x="-20" text-anchor="end" fill="#777" font-weight="700">24C (KP.3)</text></g><g class="node" transform="translate(1440, 169.56521606445312)"><circle class="node" r="15" cursor="pointer" style="fill: rgb(204, 39, 5); stroke: rgb(177, 34, 5);"></circle><text dy=".35em" x="20" text-anchor="start" fill="#777" font-weight="700">24F (XEC)</text></g><g class="node" transform="translate(1440, 254.3478240966797)"><circle class="node" r="15" cursor="pointer" style="fill: rgb(235, 29, 2); stroke: rgb(204, 25, 2);"></circle><text dy=".35em" x="20" text-anchor="start" fill="#777" font-weight="700">24G (KP.2.3)</text></g><g class="node" transform="translate(1440, 678.2608642578125)"><circle class="node" r="15" cursor="pointer" style="fill: rgb(245, 106, 49); stroke: rgb(212, 92, 43);"></circle><text dy=".35em" x="20" text-anchor="start" fill="#777" font-weight="700">23H (HK.3)</text></g><g class="node" transform="translate(1620, 84.78260803222656)"><circle class="node" r="15" cursor="pointer" style="fill: rgb(146, 43, 13); stroke: rgb(127, 37, 11);"></circle><text dy=".35em" x="20" text-anchor="start" fill="#777" font-weight="700">24E (KP.3.1.1)</text></g></svg>