<svg xmlns="http://www.w3.org/2000/svg" class="d3-component" viewBox="-70 0 1830 1950" style="font-family: sans-serif; font-size: 1.25rem;" width="2000" height="2000"><path fill="none" stroke="#ccc" stroke-width="3px" d="M 150 1608.75
              C 75 1608.75,
                75 1652.0833333333335,
                0 1652.0833333333335"></path><path fill="none" stroke="#ccc" stroke-width="3px" d="M 150 1695.4166666666667
              C 75 1695.4166666666667,
                75 1652.0833333333335,
                0 1652.0833333333335"></path><path fill="none" stroke="#ccc" stroke-width="3px" d="M 300 1522.0833333333335
              C 225 1522.0833333333335,
                225 1608.75,
                150 1608.75"></path><path fill="none" stroke="#ccc" stroke-width="3px" d="M 300 1608.75
              C 225 1608.75,
                225 1608.75,
                150 1608.75"></path><path fill="none" stroke="#ccc" stroke-width="3px" d="M 300 1695.4166666666667
              C 225 1695.4166666666667,
                225 1608.75,
                150 1608.75"></path><path fill="none" stroke="#ccc" stroke-width="3px" d="M 450 1435.4166666666667
              C 375 1435.4166666666667,
                375 1522.0833333333335,
                300 1522.0833333333335"></path><path fill="none" stroke="#ccc" stroke-width="3px" d="M 450 1522.0833333333335
              C 375 1522.0833333333335,
                375 1522.0833333333335,
                300 1522.0833333333335"></path><path fill="none" stroke="#ccc" stroke-width="3px" d="M 450 1608.75
              C 375 1608.75,
                375 1522.0833333333335,
                300 1522.0833333333335"></path><path fill="none" stroke="#ccc" stroke-width="3px" d="M 600 1007.5
              C 525 1007.5,
                525 1435.4166666666667,
                450 1435.4166666666667"></path><path fill="none" stroke="#ccc" stroke-width="3px" d="M 600 1094.1666666666667
              C 525 1094.1666666666667,
                525 1435.4166666666667,
                450 1435.4166666666667"></path><path fill="none" stroke="#ccc" stroke-width="3px" d="M 600 1435.4166666666667
              C 525 1435.4166666666667,
                525 1435.4166666666667,
                450 1435.4166666666667"></path><path fill="none" stroke="#ccc" stroke-width="3px" d="M 600 1776.6666666666667
              C 525 1776.6666666666667,
                525 1435.4166666666667,
                450 1435.4166666666667"></path><path fill="none" stroke="#ccc" stroke-width="3px" d="M 600 1863.3333333333335
              C 525 1863.3333333333335,
                525 1435.4166666666667,
                450 1435.4166666666667"></path><path fill="none" stroke="#ccc" stroke-width="3px" d="M 750 585
              C 675 585,
                675 1094.1666666666667,
                600 1094.1666666666667"></path><path fill="none" stroke="#ccc" stroke-width="3px" d="M 750 877.5
              C 675 877.5,
                675 1094.1666666666667,
                600 1094.1666666666667"></path><path fill="none" stroke="#ccc" stroke-width="3px" d="M 750 1300
              C 675 1300,
                675 1094.1666666666667,
                600 1094.1666666666667"></path><path fill="none" stroke="#ccc" stroke-width="3px" d="M 750 1451.6666666666667
              C 675 1451.6666666666667,
                675 1094.1666666666667,
                600 1094.1666666666667"></path><path fill="none" stroke="#ccc" stroke-width="3px" d="M 750 1603.3333333333335
              C 675 1603.3333333333335,
                675 1094.1666666666667,
                600 1094.1666666666667"></path><path fill="none" stroke="#ccc" stroke-width="3px" d="M 750 1776.6666666666667
              C 675 1776.6666666666667,
                675 1776.6666666666667,
                600 1776.6666666666667"></path><path fill="none" stroke="#ccc" stroke-width="3px" d="M 900 585
              C 825 585,
                825 585,
                750 585"></path><path fill="none" stroke="#ccc" stroke-width="3px" d="M 900 877.5
              C 825 877.5,
                825 877.5,
                750 877.5"></path><path fill="none" stroke="#ccc" stroke-width="3px" d="M 900 1170
              C 825 1170,
                825 1300,
                750 1300"></path><path fill="none" stroke="#ccc" stroke-width="3px" d="M 900 1256.6666666666667
              C 825 1256.6666666666667,
                825 1300,
                750 1300"></path><path fill="none" stroke="#ccc" stroke-width="3px" d="M 900 1343.3333333333335
              C 825 1343.3333333333335,
                825 1300,
                750 1300"></path><path fill="none" stroke="#ccc" stroke-width="3px" d="M 900 1430
              C 825 1430,
                825 1300,
                750 1300"></path><path fill="none" stroke="#ccc" stroke-width="3px" d="M 900 1603.3333333333335
              C 825 1603.3333333333335,
                825 1603.3333333333335,
                750 1603.3333333333335"></path><path fill="none" stroke="#ccc" stroke-width="3px" d="M 1050 173.33333333333334
              C 975 173.33333333333334,
                975 585,
                900 585"></path><path fill="none" stroke="#ccc" stroke-width="3px" d="M 1050 433.33333333333337
              C 975 433.33333333333337,
                975 585,
                900 585"></path><path fill="none" stroke="#ccc" stroke-width="3px" d="M 1050 520
              C 975 520,
                975 585,
                900 585"></path><path fill="none" stroke="#ccc" stroke-width="3px" d="M 1050 606.6666666666667
              C 975 606.6666666666667,
                975 585,
                900 585"></path><path fill="none" stroke="#ccc" stroke-width="3px" d="M 1050 823.3333333333334
              C 975 823.3333333333334,
                975 585,
                900 585"></path><path fill="none" stroke="#ccc" stroke-width="3px" d="M 1050 910
              C 975 910,
                975 585,
                900 585"></path><path fill="none" stroke="#ccc" stroke-width="3px" d="M 1050 996.6666666666667
              C 975 996.6666666666667,
                975 585,
                900 585"></path><path fill="none" stroke="#ccc" stroke-width="3px" d="M 1050 1170
              C 975 1170,
                975 1170,
                900 1170"></path><path fill="none" stroke="#ccc" stroke-width="3px" d="M 1050 1343.3333333333335
              C 975 1343.3333333333335,
                975 1343.3333333333335,
                900 1343.3333333333335"></path><path fill="none" stroke="#ccc" stroke-width="3px" d="M 1200 86.66666666666667
              C 1125 86.66666666666667,
                1125 173.33333333333334,
                1050 173.33333333333334"></path><path fill="none" stroke="#ccc" stroke-width="3px" d="M 1200 173.33333333333334
              C 1125 173.33333333333334,
                1125 173.33333333333334,
                1050 173.33333333333334"></path><path fill="none" stroke="#ccc" stroke-width="3px" d="M 1200 260
              C 1125 260,
                1125 173.33333333333334,
                1050 173.33333333333334"></path><path fill="none" stroke="#ccc" stroke-width="3px" d="M 1200 433.33333333333337
              C 1125 433.33333333333337,
                1125 433.33333333333337,
                1050 433.33333333333337"></path><path fill="none" stroke="#ccc" stroke-width="3px" d="M 1200 606.6666666666667
              C 1125 606.6666666666667,
                1125 606.6666666666667,
                1050 606.6666666666667"></path><path fill="none" stroke="#ccc" stroke-width="3px" d="M 1200 780
              C 1125 780,
                1125 823.3333333333334,
                1050 823.3333333333334"></path><path fill="none" stroke="#ccc" stroke-width="3px" d="M 1200 866.6666666666667
              C 1125 866.6666666666667,
                1125 823.3333333333334,
                1050 823.3333333333334"></path><path fill="none" stroke="#ccc" stroke-width="3px" d="M 1200 1343.3333333333335
              C 1125 1343.3333333333335,
                1125 1343.3333333333335,
                1050 1343.3333333333335"></path><path fill="none" stroke="#ccc" stroke-width="3px" d="M 1350 86.66666666666667
              C 1275 86.66666666666667,
                1275 86.66666666666667,
                1200 86.66666666666667"></path><path fill="none" stroke="#ccc" stroke-width="3px" d="M 1500 86.66666666666667
              C 1425 86.66666666666667,
                1425 86.66666666666667,
                1350 86.66666666666667"></path><g transform="translate(50,50)"></g><g class="node" transform="translate(0, 1652.0833740234375)"><circle class="node" r="15" cursor="pointer" style="fill: rgb(215, 215, 215); stroke: rgb(186, 186, 186);"></circle><text dy=".35em" x="-20" text-anchor="end" fill="#777" font-weight="700">19A (B)</text></g><g class="node" transform="translate(150, 1608.75)"><circle class="node" r="15" cursor="pointer" style="fill: rgb(198, 198, 198); stroke: rgb(171, 171, 171);"></circle><text dy=".35em" x="-20" text-anchor="end" fill="#777" font-weight="700">20A (B.1)</text></g><g class="node" transform="translate(150, 1695.4166259765625)"><circle class="node" r="15" cursor="pointer" style="fill: rgb(137, 137, 137); stroke: rgb(119, 119, 119);"></circle><text dy=".35em" x="20" text-anchor="start" fill="#777" font-weight="700"></text></g><g class="node" transform="translate(300, 1522.0833740234375)"><circle class="node" r="15" cursor="pointer" style="fill: rgb(189, 189, 189); stroke: rgb(164, 164, 164);"></circle><text dy=".35em" x="-20" text-anchor="end" fill="#777" font-weight="700">20B (B.1.1)</text></g><g class="node" transform="translate(300, 1608.75)"><circle class="node" r="15" cursor="pointer" style="fill: rgb(69, 64, 212); stroke: rgb(60, 56, 183);"></circle><text dy=".35em" x="20" text-anchor="start" fill="#777" font-weight="700">21A (Delta, B.1.617.2)</text></g><g class="node" transform="translate(300, 1695.4166259765625)"><circle class="node" r="15" cursor="pointer" style="fill: rgb(137, 137, 137); stroke: rgb(119, 119, 119);"></circle><text dy=".35em" x="20" text-anchor="start" fill="#777" font-weight="700"></text></g><g class="node" transform="translate(450, 1435.4166259765625)"><circle class="node" r="15" cursor="pointer" style="fill: rgb(135, 198, 127); stroke: rgb(117, 171, 110);"></circle><text dy=".35em" x="-20" text-anchor="end" fill="#777" font-weight="700">21M (Omicron, B.1.1.529)</text></g><g class="node" transform="translate(450, 1522.0833740234375)"><circle class="node" r="15" cursor="pointer" style="fill: rgb(84, 35, 186); stroke: rgb(73, 31, 161);"></circle><text dy=".35em" x="20" text-anchor="start" fill="#777" font-weight="700">20I (Alpha, B.1.1.7)</text></g><g class="node" transform="translate(450, 1608.75)"><circle class="node" r="15" cursor="pointer" style="fill: rgb(137, 137, 137); stroke: rgb(119, 119, 119);"></circle><text dy=".35em" x="20" text-anchor="start" fill="#777" font-weight="700"></text></g><g class="node" transform="translate(600, 1007.5)"><circle class="node" r="15" cursor="pointer" style="fill: rgb(114, 190, 154); stroke: rgb(99, 165, 133);"></circle><text dy=".35em" x="20" text-anchor="start" fill="#777" font-weight="700">21K (Omicron, BA.1)</text></g><g class="node" transform="translate(600, 1094.1666259765625)"><circle class="node" r="15" cursor="pointer" style="fill: rgb(125, 194, 140); stroke: rgb(108, 169, 121);"></circle><text dy=".35em" x="-20" text-anchor="end" fill="#777" font-weight="700">21L (Omicron, BA.2)</text></g><g class="node" transform="translate(600, 1435.4166259765625)"><circle class="node" r="15" cursor="pointer" style="fill: rgb(147, 201, 115); stroke: rgb(128, 174, 100);"></circle><text dy=".35em" x="20" text-anchor="start" fill="#777" font-weight="700">22A (BA.4)</text></g><g class="node" transform="translate(600, 1776.6666259765625)"><circle class="node" r="15" cursor="pointer" style="fill: rgb(159, 203, 104); stroke: rgb(138, 176, 90);"></circle><text dy=".35em" x="-20" text-anchor="end" fill="#777" font-weight="700">22B (BA.5)</text></g><g class="node" transform="translate(600, 1863.3333740234375)"><circle class="node" r="15" cursor="pointer" style="fill: rgb(237, 255, 0); stroke: rgb(206, 237, 0);"></circle><text dy=".35em" x="20" text-anchor="start" fill="#777" font-weight="700">25I (BA.3.2)</text></g><g class="node" transform="translate(750, 585)"><circle class="node" r="15" cursor="pointer" style="fill: rgb(242, 85, 45); stroke: rgb(210, 74, 39);"></circle><text dy=".35em" x="-20" text-anchor="end" fill="#777" font-weight="700">23I (BA.2.86)</text></g><g class="node" transform="translate(750, 877.5)"><circle class="node" r="15" cursor="pointer" style="fill: rgb(184, 203, 87); stroke: rgb(159, 176, 75);"></circle><text dy=".35em" x="-20" text-anchor="end" fill="#777" font-weight="700">22D (BA.2.75)</text></g><g class="node" transform="translate(750, 1300)"><circle class="node" r="15" cursor="pointer" style="fill: rgb(208, 200, 75); stroke: rgb(181, 173, 65);"></circle><text dy=".35em" x="-20" text-anchor="end" fill="#777" font-weight="700">22F (XBB)</text></g><g class="node" transform="translate(750, 1451.6666259765625)"><circle class="node" r="15" cursor="pointer" style="fill: rgb(208, 200, 75); stroke: rgb(181, 173, 65);"></circle><text dy=".35em" x="20" text-anchor="start" fill="#777" font-weight="700">22C (BA.2.12.1)</text></g><g class="node" transform="translate(750, 1603.3333740234375)"><circle class="node" r="15" cursor="pointer" style="fill: rgb(172, 204, 96); stroke: rgb(149, 177, 83);"></circle><text dy=".35em" x="-20" text-anchor="end" fill="#777" font-weight="700">24D (XDV)</text></g><g class="node" transform="translate(750, 1776.6666259765625)"><circle class="node" r="15" cursor="pointer" style="fill: rgb(197, 203, 81); stroke: rgb(170, 176, 70);"></circle><text dy=".35em" x="20" text-anchor="start" fill="#777" font-weight="700">22E (BQ.1)</text></g><g class="node" transform="translate(900, 585)"><circle class="node" r="15" cursor="pointer" style="fill: rgb(238, 64, 41); stroke: rgb(207, 56, 35);"></circle><text dy=".35em" x="-20" text-anchor="end" fill="#777" font-weight="700">24A (JN.1)</text></g><g class="node" transform="translate(900, 877.5)"><circle class="node" r="15" cursor="pointer" style="fill: rgb(237, 183, 64); stroke: rgb(206, 158, 56);"></circle><text dy=".35em" x="20" text-anchor="start" fill="#777" font-weight="700">23C (CH.1.1)</text></g><g class="node" transform="translate(900, 1170)"><circle class="node" r="15" cursor="pointer" style="fill: rgb(219, 197, 71); stroke: rgb(190, 170, 61);"></circle><text dy=".35em" x="-20" text-anchor="end" fill="#777" font-weight="700">23A (XBB.1.5)</text></g><g class="node" transform="translate(900, 1256.6666259765625)"><circle class="node" r="15" cursor="pointer" style="fill: rgb(229, 190, 68); stroke: rgb(198, 165, 59);"></circle><text dy=".35em" x="20" text-anchor="start" fill="#777" font-weight="700">23B (XBB.1.16)</text></g><g class="node" transform="translate(900, 1343.3333740234375)"><circle class="node" r="15" cursor="pointer" style="fill: rgb(242, 171, 62); stroke: rgb(210, 148, 54);"></circle><text dy=".35em" x="-20" text-anchor="end" fill="#777" font-weight="700">23D (XBB.1.9)</text></g><g class="node" transform="translate(900, 1430)"><circle class="node" r="15" cursor="pointer" style="fill: rgb(247, 160, 59); stroke: rgb(214, 139, 51);"></circle><text dy=".35em" x="20" text-anchor="start" fill="#777" font-weight="700">23E (XBB.2.3)</text></g><g class="node" transform="translate(900, 1603.3333740234375)"><circle class="node" r="15" cursor="pointer" style="fill: rgb(223, 184, 60); stroke: rgb(194, 159, 52);"></circle><text dy=".35em" x="20" text-anchor="start" fill="#777" font-weight="700">25B (NB.1.8.1)</text></g><g class="node" transform="translate(1050, 173.3333282470703)"><circle class="node" r="15" cursor="pointer" style="fill: rgb(235, 43, 38); stroke: rgb(204, 37, 33);"></circle><text dy=".35em" x="-20" text-anchor="end" fill="#777" font-weight="700">24B (JN.1.11.1)</text></g><g class="node" transform="translate(1050, 433.3333435058594)"><circle class="node" r="15" cursor="pointer" style="fill: rgb(255, 59, 52); stroke: rgb(227, 51, 45);"></circle><text dy=".35em" x="-20" text-anchor="end" fill="#777" font-weight="700">24H (LF.7)</text></g><g class="node" transform="translate(1050, 520)"><circle class="node" r="15" cursor="pointer" style="fill: rgb(255, 72, 67); stroke: rgb(231, 62, 58);"></circle><text dy=".35em" x="20" text-anchor="start" fill="#777" font-weight="700">24I (MV.1)</text></g><g class="node" transform="translate(1050, 606.6666870117188)"><circle class="node" r="15" cursor="pointer" style="fill: rgb(255, 99, 92); stroke: rgb(231, 86, 80);"></circle><text dy=".35em" x="-20" text-anchor="end" fill="#777" font-weight="700">25A (LP.8.1)</text></g><g class="node" transform="translate(1050, 823.3333129882812)"><circle class="node" r="15" cursor="pointer" style="fill: rgb(255, 131, 120); stroke: rgb(237, 114, 104);"></circle><text dy=".35em" x="-20" text-anchor="end" fill="#777" font-weight="700">25C (XFG)</text></g><g class="node" transform="translate(1050, 910)"><circle class="node" r="15" cursor="pointer" style="fill: rgb(255, 183, 175); stroke: rgb(237, 158, 152);"></circle><text dy=".35em" x="20" text-anchor="start" fill="#777" font-weight="700">25G (XFC)</text></g><g class="node" transform="translate(1050, 996.6666870117188)"><circle class="node" r="15" cursor="pointer" style="fill: rgb(255, 221, 216); stroke: rgb(237, 192, 187);"></circle><text dy=".35em" x="20" text-anchor="start" fill="#777" font-weight="700">25H (XFJ)</text></g><g class="node" transform="translate(1050, 1170)"><circle class="node" r="15" cursor="pointer" style="fill: rgb(242, 85, 45); stroke: rgb(210, 74, 39);"></circle><text dy=".35em" x="20" text-anchor="start" fill="#777" font-weight="700">23G (XBB.1.5.70)</text></g><g class="node" transform="translate(1050, 1343.3333740234375)"><circle class="node" r="15" cursor="pointer" style="fill: rgb(247, 143, 56); stroke: rgb(214, 124, 48);"></circle><text dy=".35em" x="-20" text-anchor="end" fill="#777" font-weight="700">23F (EG.5.1)</text></g><g class="node" transform="translate(1200, 86.66666412353516)"><circle class="node" r="15" cursor="pointer" style="fill: rgb(175, 42, 10); stroke: rgb(152, 36, 8);"></circle><text dy=".35em" x="-20" text-anchor="end" fill="#777" font-weight="700">24C (KP.3)</text></g><g class="node" transform="translate(1200, 173.3333282470703)"><circle class="node" r="15" cursor="pointer" style="fill: rgb(203, 55, 31); stroke: rgb(176, 47, 27);"></circle><text dy=".35em" x="20" text-anchor="start" fill="#777" font-weight="700">24F (XEC)</text></g><g class="node" transform="translate(1200, 260)"><circle class="node" r="15" cursor="pointer" style="fill: rgb(220, 66, 50); stroke: rgb(191, 57, 44);"></circle><text dy=".35em" x="20" text-anchor="start" fill="#777" font-weight="700">24G (KP.2.3)</text></g><g class="node" transform="translate(1200, 433.3333435058594)"><circle class="node" r="15" cursor="pointer" style="fill: rgb(241, 93, 79); stroke: rgb(209, 81, 69);"></circle><text dy=".35em" x="20" text-anchor="start" fill="#777" font-weight="700">25E (PY.1)</text></g><g class="node" transform="translate(1200, 606.6666870117188)"><circle class="node" r="15" cursor="pointer" style="fill: rgb(255, 132, 119); stroke: rgb(225, 115, 103);"></circle><text dy=".35em" x="20" text-anchor="start" fill="#777" font-weight="700">25F (NW.1.2)</text></g><g class="node" transform="translate(1200, 780)"><circle class="node" r="15" cursor="pointer" style="fill: rgb(255, 146, 134); stroke: rgb(226, 127, 116);"></circle><text dy=".35em" x="20" text-anchor="start" fill="#777" font-weight="700">26A (XFG.1.1)</text></g><g class="node" transform="translate(1200, 866.6666870117188)"><circle class="node" r="15" cursor="pointer" style="fill: rgb(255, 187, 179); stroke: rgb(229, 162, 156);"></circle><text dy=".35em" x="20" text-anchor="start" fill="#777" font-weight="700">26B (XFG.3.4.1)</text></g><g class="node" transform="translate(1200, 1343.3333740234375)"><circle class="node" r="15" cursor="pointer" style="fill: rgb(245, 106, 49); stroke: rgb(212, 92, 43);"></circle><text dy=".35em" x="20" text-anchor="start" fill="#777" font-weight="700">23H (HK.3)</text></g><g class="node" transform="translate(1350, 86.66666412353516)"><circle class="node" r="15" cursor="pointer" style="fill: rgb(162, 39, 21); stroke: rgb(141, 34, 19);"></circle><text dy=".35em" x="-20" text-anchor="end" fill="#777" font-weight="700">24E (KP.3.1.1)</text></g><g class="node" transform="translate(1500, 86.66666412353516)"><circle class="node" r="15" cursor="pointer" style="fill: rgb(83, 10, 12); stroke: rgb(72, 8, 10);"></circle><text dy=".35em" x="20" text-anchor="start" fill="#777" font-weight="700">25D (MC.10.2.1)</text></g></svg>