<svg xmlns="http://www.w3.org/2000/svg" class="d3-component" viewBox="-70 0 1830 1950" style="font-family: sans-serif; font-size: 1.25rem;" width="2000" height="2000"><path fill="none" stroke="#ccc" stroke-width="3px" d="M 180 1376.4705882352941
              C 90 1376.4705882352941,
                90 1414.7058823529412,
                0 1414.7058823529412"></path><path fill="none" stroke="#ccc" stroke-width="3px" d="M 180 1452.9411764705883
              C 90 1452.9411764705883,
                90 1414.7058823529412,
                0 1414.7058823529412"></path><path fill="none" stroke="#ccc" stroke-width="3px" d="M 360 879.4117647058823
              C 270 879.4117647058823,
                270 1376.4705882352941,
                180 1376.4705882352941"></path><path fill="none" stroke="#ccc" stroke-width="3px" d="M 360 1261.764705882353
              C 270 1261.764705882353,
                270 1376.4705882352941,
                180 1376.4705882352941"></path><path fill="none" stroke="#ccc" stroke-width="3px" d="M 360 1567.6470588235293
              C 270 1567.6470588235293,
                270 1376.4705882352941,
                180 1376.4705882352941"></path><path fill="none" stroke="#ccc" stroke-width="3px" d="M 360 1644.1176470588234
              C 270 1644.1176470588234,
                270 1376.4705882352941,
                180 1376.4705882352941"></path><path fill="none" stroke="#ccc" stroke-width="3px" d="M 360 1720.5882352941176
              C 270 1720.5882352941176,
                270 1376.4705882352941,
                180 1376.4705882352941"></path><path fill="none" stroke="#ccc" stroke-width="3px" d="M 360 1797.0588235294117
              C 270 1797.0588235294117,
                270 1376.4705882352941,
                180 1376.4705882352941"></path><path fill="none" stroke="#ccc" stroke-width="3px" d="M 360 1873.5294117647059
              C 270 1873.5294117647059,
                270 1376.4705882352941,
                180 1376.4705882352941"></path><path fill="none" stroke="#ccc" stroke-width="3px" d="M 540 688.2352941176471
              C 450 688.2352941176471,
                450 879.4117647058823,
                360 879.4117647058823"></path><path fill="none" stroke="#ccc" stroke-width="3px" d="M 540 764.7058823529412
              C 450 764.7058823529412,
                450 879.4117647058823,
                360 879.4117647058823"></path><path fill="none" stroke="#ccc" stroke-width="3px" d="M 540 841.1764705882352
              C 450 841.1764705882352,
                450 879.4117647058823,
                360 879.4117647058823"></path><path fill="none" stroke="#ccc" stroke-width="3px" d="M 540 917.6470588235294
              C 450 917.6470588235294,
                450 879.4117647058823,
                360 879.4117647058823"></path><path fill="none" stroke="#ccc" stroke-width="3px" d="M 540 994.1176470588235
              C 450 994.1176470588235,
                450 879.4117647058823,
                360 879.4117647058823"></path><path fill="none" stroke="#ccc" stroke-width="3px" d="M 540 1070.5882352941176
              C 450 1070.5882352941176,
                450 879.4117647058823,
                360 879.4117647058823"></path><path fill="none" stroke="#ccc" stroke-width="3px" d="M 540 1223.5294117647059
              C 450 1223.5294117647059,
                450 1261.764705882353,
                360 1261.764705882353"></path><path fill="none" stroke="#ccc" stroke-width="3px" d="M 540 1300
              C 450 1300,
                450 1261.764705882353,
                360 1261.764705882353"></path><path fill="none" stroke="#ccc" stroke-width="3px" d="M 540 1452.9411764705883
              C 450 1452.9411764705883,
                450 1567.6470588235293,
                360 1567.6470588235293"></path><path fill="none" stroke="#ccc" stroke-width="3px" d="M 540 1529.4117647058824
              C 450 1529.4117647058824,
                450 1567.6470588235293,
                360 1567.6470588235293"></path><path fill="none" stroke="#ccc" stroke-width="3px" d="M 540 1605.8823529411764
              C 450 1605.8823529411764,
                450 1567.6470588235293,
                360 1567.6470588235293"></path><path fill="none" stroke="#ccc" stroke-width="3px" d="M 540 1682.3529411764705
              C 450 1682.3529411764705,
                450 1567.6470588235293,
                360 1567.6470588235293"></path><path fill="none" stroke="#ccc" stroke-width="3px" d="M 720 650
              C 630 650,
                630 688.2352941176471,
                540 688.2352941176471"></path><path fill="none" stroke="#ccc" stroke-width="3px" d="M 720 726.4705882352941
              C 630 726.4705882352941,
                630 688.2352941176471,
                540 688.2352941176471"></path><path fill="none" stroke="#ccc" stroke-width="3px" d="M 720 1070.5882352941176
              C 630 1070.5882352941176,
                630 1070.5882352941176,
                540 1070.5882352941176"></path><path fill="none" stroke="#ccc" stroke-width="3px" d="M 900 267.6470588235294
              C 810 267.6470588235294,
                810 726.4705882352941,
                720 726.4705882352941"></path><path fill="none" stroke="#ccc" stroke-width="3px" d="M 900 420.5882352941176
              C 810 420.5882352941176,
                810 726.4705882352941,
                720 726.4705882352941"></path><path fill="none" stroke="#ccc" stroke-width="3px" d="M 900 688.2352941176471
              C 810 688.2352941176471,
                810 726.4705882352941,
                720 726.4705882352941"></path><path fill="none" stroke="#ccc" stroke-width="3px" d="M 900 822.0588235294117
              C 810 822.0588235294117,
                810 726.4705882352941,
                720 726.4705882352941"></path><path fill="none" stroke="#ccc" stroke-width="3px" d="M 900 955.8823529411765
              C 810 955.8823529411765,
                810 726.4705882352941,
                720 726.4705882352941"></path><path fill="none" stroke="#ccc" stroke-width="3px" d="M 900 1108.8235294117646
              C 810 1108.8235294117646,
                810 726.4705882352941,
                720 726.4705882352941"></path><path fill="none" stroke="#ccc" stroke-width="3px" d="M 900 1185.2941176470588
              C 810 1185.2941176470588,
                810 726.4705882352941,
                720 726.4705882352941"></path><path fill="none" stroke="#ccc" stroke-width="3px" d="M 1080 267.6470588235294
              C 990 267.6470588235294,
                990 267.6470588235294,
                900 267.6470588235294"></path><path fill="none" stroke="#ccc" stroke-width="3px" d="M 1080 420.5882352941176
              C 990 420.5882352941176,
                990 420.5882352941176,
                900 420.5882352941176"></path><path fill="none" stroke="#ccc" stroke-width="3px" d="M 1080 573.5294117647059
              C 990 573.5294117647059,
                990 688.2352941176471,
                900 688.2352941176471"></path><path fill="none" stroke="#ccc" stroke-width="3px" d="M 1080 650
              C 990 650,
                990 688.2352941176471,
                900 688.2352941176471"></path><path fill="none" stroke="#ccc" stroke-width="3px" d="M 1080 726.4705882352941
              C 990 726.4705882352941,
                990 688.2352941176471,
                900 688.2352941176471"></path><path fill="none" stroke="#ccc" stroke-width="3px" d="M 1080 802.9411764705882
              C 990 802.9411764705882,
                990 688.2352941176471,
                900 688.2352941176471"></path><path fill="none" stroke="#ccc" stroke-width="3px" d="M 1080 955.8823529411765
              C 990 955.8823529411765,
                990 955.8823529411765,
                900 955.8823529411765"></path><path fill="none" stroke="#ccc" stroke-width="3px" d="M 1080 1108.8235294117646
              C 990 1108.8235294117646,
                990 1108.8235294117646,
                900 1108.8235294117646"></path><path fill="none" stroke="#ccc" stroke-width="3px" d="M 1260 152.94117647058823
              C 1170 152.94117647058823,
                1170 267.6470588235294,
                1080 267.6470588235294"></path><path fill="none" stroke="#ccc" stroke-width="3px" d="M 1260 229.41176470588235
              C 1170 229.41176470588235,
                1170 267.6470588235294,
                1080 267.6470588235294"></path><path fill="none" stroke="#ccc" stroke-width="3px" d="M 1260 305.88235294117646
              C 1170 305.88235294117646,
                1170 267.6470588235294,
                1080 267.6470588235294"></path><path fill="none" stroke="#ccc" stroke-width="3px" d="M 1260 382.3529411764706
              C 1170 382.3529411764706,
                1170 267.6470588235294,
                1080 267.6470588235294"></path><path fill="none" stroke="#ccc" stroke-width="3px" d="M 1260 573.5294117647059
              C 1170 573.5294117647059,
                1170 573.5294117647059,
                1080 573.5294117647059"></path><path fill="none" stroke="#ccc" stroke-width="3px" d="M 1260 726.4705882352941
              C 1170 726.4705882352941,
                1170 726.4705882352941,
                1080 726.4705882352941"></path><path fill="none" stroke="#ccc" stroke-width="3px" d="M 1440 76.47058823529412
              C 1350 76.47058823529412,
                1350 152.94117647058823,
                1260 152.94117647058823"></path><path fill="none" stroke="#ccc" stroke-width="3px" d="M 1440 152.94117647058823
              C 1350 152.94117647058823,
                1350 152.94117647058823,
                1260 152.94117647058823"></path><path fill="none" stroke="#ccc" stroke-width="3px" d="M 1440 229.41176470588235
              C 1350 229.41176470588235,
                1350 152.94117647058823,
                1260 152.94117647058823"></path><path fill="none" stroke="#ccc" stroke-width="3px" d="M 1440 726.4705882352941
              C 1350 726.4705882352941,
                1350 726.4705882352941,
                1260 726.4705882352941"></path><path fill="none" stroke="#ccc" stroke-width="3px" d="M 1620 76.47058823529412
              C 1530 76.47058823529412,
                1530 76.47058823529412,
                1440 76.47058823529412"></path><g transform="translate(50,50)"></g><g class="node" transform="translate(0, 1414.7059326171875)"><circle class="node" r="15" cursor="pointer" style="fill: rgb(215, 215, 215); stroke: rgb(186, 186, 186);"></circle><text dy=".35em" x="-20" text-anchor="end" fill="#777" font-weight="700">19A (B)</text></g><g class="node" transform="translate(180, 1376.4705810546875)"><circle class="node" r="15" cursor="pointer" style="fill: rgb(198, 198, 198); stroke: rgb(171, 171, 171);"></circle><text dy=".35em" x="-20" text-anchor="end" fill="#777" font-weight="700">20A (B.1)</text></g><g class="node" transform="translate(180, 1452.941162109375)"><circle class="node" r="15" cursor="pointer" style="fill: rgb(206, 206, 206); stroke: rgb(179, 179, 179);"></circle><text dy=".35em" x="20" text-anchor="start" fill="#777" font-weight="700">19B (A)</text></g><g class="node" transform="translate(360, 879.4117431640625)"><circle class="node" r="15" cursor="pointer" style="fill: rgb(189, 189, 189); stroke: rgb(164, 164, 164);"></circle><text dy=".35em" x="-20" text-anchor="end" fill="#777" font-weight="700">20B (B.1.1)</text></g><g class="node" transform="translate(360, 1261.7646484375)"><circle class="node" r="15" cursor="pointer" style="fill: rgb(69, 64, 212); stroke: rgb(60, 56, 183);"></circle><text dy=".35em" x="-20" text-anchor="end" fill="#777" font-weight="700">21A (Delta, B.1.617.2)</text></g><g class="node" transform="translate(360, 1567.6470947265625)"><circle class="node" r="15" cursor="pointer" style="fill: rgb(180, 180, 180); stroke: rgb(156, 156, 156);"></circle><text dy=".35em" x="-20" text-anchor="end" fill="#777" font-weight="700">20C</text></g><g class="node" transform="translate(360, 1644.11767578125)"><circle class="node" r="15" cursor="pointer" style="fill: rgb(105, 184, 168); stroke: rgb(91, 159, 145);"></circle><text dy=".35em" x="20" text-anchor="start" fill="#777" font-weight="700">21H (Mu, B.1.621)</text></g><g class="node" transform="translate(360, 1720.5882568359375)"><circle class="node" r="15" cursor="pointer" style="fill: rgb(77, 145, 213); stroke: rgb(67, 126, 184);"></circle><text dy=".35em" x="20" text-anchor="start" fill="#777" font-weight="700">21D (Eta, B.1.525)</text></g><g class="node" transform="translate(360, 1797.058837890625)"><circle class="node" r="15" cursor="pointer" style="fill: rgb(70, 116, 221); stroke: rgb(61, 101, 192);"></circle><text dy=".35em" x="20" text-anchor="start" fill="#777" font-weight="700">21B (Kappa, B.1.617.1)</text></g><g class="node" transform="translate(360, 1873.5294189453125)"><circle class="node" r="15" cursor="pointer" style="fill: rgb(163, 163, 163); stroke: rgb(142, 142, 142);"></circle><text dy=".35em" x="20" text-anchor="start" fill="#777" font-weight="700">20E (EU1, B.1.177)</text></g><g class="node" transform="translate(540, 688.2352905273438)"><circle class="node" r="15" cursor="pointer" style="fill: rgb(135, 198, 127); stroke: rgb(117, 171, 110);"></circle><text dy=".35em" x="-20" text-anchor="end" fill="#777" font-weight="700">21M (Omicron, B.1.1.529)</text></g><g class="node" transform="translate(540, 764.7058715820312)"><circle class="node" r="15" cursor="pointer" style="fill: rgb(83, 158, 204); stroke: rgb(72, 137, 177);"></circle><text dy=".35em" x="20" text-anchor="start" fill="#777" font-weight="700">21E (Theta, P.3)</text></g><g class="node" transform="translate(540, 841.1764526367188)"><circle class="node" r="15" cursor="pointer" style="fill: rgb(75, 49, 199); stroke: rgb(65, 43, 172);"></circle><text dy=".35em" x="20" text-anchor="start" fill="#777" font-weight="700">20J (Gamma, P.1)</text></g><g class="node" transform="translate(540, 917.6470336914062)"><circle class="node" r="15" cursor="pointer" style="fill: rgb(84, 35, 186); stroke: rgb(73, 31, 161);"></circle><text dy=".35em" x="20" text-anchor="start" fill="#777" font-weight="700">20I (Alpha, B.1.1.7)</text></g><g class="node" transform="translate(540, 994.11767578125)"><circle class="node" r="15" cursor="pointer" style="fill: rgb(155, 155, 155); stroke: rgb(134, 134, 134);"></circle><text dy=".35em" x="20" text-anchor="start" fill="#777" font-weight="700">20F (D.2)</text></g><g class="node" transform="translate(540, 1070.5882568359375)"><circle class="node" r="15" cursor="pointer" style="fill: rgb(172, 172, 172); stroke: rgb(149, 149, 149);"></circle><text dy=".35em" x="-20" text-anchor="end" fill="#777" font-weight="700">20D (B.1.1.1)</text></g><g class="node" transform="translate(540, 1223.5294189453125)"><circle class="node" r="15" cursor="pointer" style="fill: rgb(68, 82, 218); stroke: rgb(59, 71, 189);"></circle><text dy=".35em" x="20" text-anchor="start" fill="#777" font-weight="700">21I (Delta)</text></g><g class="node" transform="translate(540, 1300)"><circle class="node" r="15" cursor="pointer" style="fill: rgb(67, 100, 223); stroke: rgb(58, 87, 194);"></circle><text dy=".35em" x="20" text-anchor="start" fill="#777" font-weight="700">21J (Delta)</text></g><g class="node" transform="translate(540, 1452.941162109375)"><circle class="node" r="15" cursor="pointer" style="fill: rgb(89, 168, 192); stroke: rgb(77, 145, 167);"></circle><text dy=".35em" x="20" text-anchor="start" fill="#777" font-weight="700">21F (Iota, B.1.526)</text></g><g class="node" transform="translate(540, 1529.4117431640625)"><circle class="node" r="15" cursor="pointer" style="fill: rgb(73, 132, 220); stroke: rgb(63, 115, 191);"></circle><text dy=".35em" x="20" text-anchor="start" fill="#777" font-weight="700">21C (Epsilon, B.1.427/429)</text></g><g class="node" transform="translate(540, 1605.88232421875)"><circle class="node" r="15" cursor="pointer" style="fill: rgb(101, 31, 169); stroke: rgb(88, 27, 146);"></circle><text dy=".35em" x="20" text-anchor="start" fill="#777" font-weight="700">20H (Beta, B.1.351)</text></g><g class="node" transform="translate(540, 1682.3529052734375)"><circle class="node" r="15" cursor="pointer" style="fill: rgb(146, 146, 146); stroke: rgb(127, 127, 127);"></circle><text dy=".35em" x="20" text-anchor="start" fill="#777" font-weight="700">20G (B.1.2)</text></g><g class="node" transform="translate(720, 650)"><circle class="node" r="15" cursor="pointer" style="fill: rgb(114, 190, 154); stroke: rgb(99, 165, 133);"></circle><text dy=".35em" x="20" text-anchor="start" fill="#777" font-weight="700">21K (Omicron, BA.1)</text></g><g class="node" transform="translate(720, 726.4705810546875)"><circle class="node" r="15" cursor="pointer" style="fill: rgb(125, 194, 140); stroke: rgb(108, 169, 121);"></circle><text dy=".35em" x="-20" text-anchor="end" fill="#777" font-weight="700">21L (Omicron, BA.2)</text></g><g class="node" transform="translate(720, 1070.5882568359375)"><circle class="node" r="15" cursor="pointer" style="fill: rgb(97, 177, 180); stroke: rgb(84, 154, 156);"></circle><text dy=".35em" x="20" text-anchor="start" fill="#777" font-weight="700">21G (Lambda, C.37)</text></g><g class="node" transform="translate(900, 267.6470642089844)"><circle class="node" r="15" cursor="pointer" style="fill: rgb(242, 85, 45); stroke: rgb(210, 74, 39);"></circle><text dy=".35em" x="-20" text-anchor="end" fill="#777" font-weight="700">23I (BA.2.86)</text></g><g class="node" transform="translate(900, 420.5882263183594)"><circle class="node" r="15" cursor="pointer" style="fill: rgb(184, 203, 87); stroke: rgb(159, 176, 75);"></circle><text dy=".35em" x="-20" text-anchor="end" fill="#777" font-weight="700">22D (BA.2.75)</text></g><g class="node" transform="translate(900, 688.2352905273438)"><circle class="node" r="15" cursor="pointer" style="fill: rgb(208, 200, 75); stroke: rgb(181, 173, 65);"></circle><text dy=".35em" x="-20" text-anchor="end" fill="#777" font-weight="700">22F (XBB)</text></g><g class="node" transform="translate(900, 822.058837890625)"><circle class="node" r="15" cursor="pointer" style="fill: rgb(208, 200, 75); stroke: rgb(181, 173, 65);"></circle><text dy=".35em" x="20" text-anchor="start" fill="#777" font-weight="700">22C (BA.2.12.1)</text></g><g class="node" transform="translate(900, 955.88232421875)"><circle class="node" r="15" cursor="pointer" style="fill: rgb(172, 204, 96); stroke: rgb(149, 177, 83);"></circle><text dy=".35em" x="-20" text-anchor="end" fill="#777" font-weight="700">24D (XDV)</text></g><g class="node" transform="translate(900, 1108.823486328125)"><circle class="node" r="15" cursor="pointer" style="fill: rgb(159, 203, 104); stroke: rgb(138, 176, 90);"></circle><text dy=".35em" x="-20" text-anchor="end" fill="#777" font-weight="700">22B (BA.5)</text></g><g class="node" transform="translate(900, 1185.2940673828125)"><circle class="node" r="15" cursor="pointer" style="fill: rgb(147, 201, 115); stroke: rgb(128, 174, 100);"></circle><text dy=".35em" x="20" text-anchor="start" fill="#777" font-weight="700">22A (BA.4)</text></g><g class="node" transform="translate(1080, 267.6470642089844)"><circle class="node" r="15" cursor="pointer" style="fill: rgb(238, 64, 41); stroke: rgb(207, 56, 35);"></circle><text dy=".35em" x="-20" text-anchor="end" fill="#777" font-weight="700">24A (JN.1)</text></g><g class="node" transform="translate(1080, 420.5882263183594)"><circle class="node" r="15" cursor="pointer" style="fill: rgb(237, 183, 64); stroke: rgb(206, 158, 56);"></circle><text dy=".35em" x="20" text-anchor="start" fill="#777" font-weight="700">23C (CH.1.1)</text></g><g class="node" transform="translate(1080, 573.5294189453125)"><circle class="node" r="15" cursor="pointer" style="fill: rgb(219, 197, 71); stroke: rgb(190, 170, 61);"></circle><text dy=".35em" x="-20" text-anchor="end" fill="#777" font-weight="700">23A (XBB.1.5)</text></g><g class="node" transform="translate(1080, 650)"><circle class="node" r="15" cursor="pointer" style="fill: rgb(229, 190, 68); stroke: rgb(198, 165, 59);"></circle><text dy=".35em" x="20" text-anchor="start" fill="#777" font-weight="700">23B (XBB.1.16)</text></g><g class="node" transform="translate(1080, 726.4705810546875)"><circle class="node" r="15" cursor="pointer" style="fill: rgb(242, 171, 62); stroke: rgb(210, 148, 54);"></circle><text dy=".35em" x="-20" text-anchor="end" fill="#777" font-weight="700">23D (XBB.1.9)</text></g><g class="node" transform="translate(1080, 802.941162109375)"><circle class="node" r="15" cursor="pointer" style="fill: rgb(247, 160, 59); stroke: rgb(214, 139, 51);"></circle><text dy=".35em" x="20" text-anchor="start" fill="#777" font-weight="700">23E (XBB.2.3)</text></g><g class="node" transform="translate(1080, 955.88232421875)"><circle class="node" r="15" cursor="pointer" style="fill: rgb(223, 184, 60); stroke: rgb(194, 159, 52);"></circle><text dy=".35em" x="20" text-anchor="start" fill="#777" font-weight="700">25B (NB.1.8.1)</text></g><g class="node" transform="translate(1080, 1108.823486328125)"><circle class="node" r="15" cursor="pointer" style="fill: rgb(197, 203, 81); stroke: rgb(170, 176, 70);"></circle><text dy=".35em" x="20" text-anchor="start" fill="#777" font-weight="700">22E (BQ.1)</text></g><g class="node" transform="translate(1260, 152.94117736816406)"><circle class="node" r="15" cursor="pointer" style="fill: rgb(235, 43, 38); stroke: rgb(204, 37, 33);"></circle><text dy=".35em" x="-20" text-anchor="end" fill="#777" font-weight="700">24B (JN.1.11.1)</text></g><g class="node" transform="translate(1260, 229.41175842285156)"><circle class="node" r="15" cursor="pointer" style="fill: rgb(255, 59, 52); stroke: rgb(227, 51, 45);"></circle><text dy=".35em" x="20" text-anchor="start" fill="#777" font-weight="700">24H (LF.7)</text></g><g class="node" transform="translate(1260, 305.8823547363281)"><circle class="node" r="15" cursor="pointer" style="fill: rgb(255, 72, 67); stroke: rgb(231, 62, 58);"></circle><text dy=".35em" x="20" text-anchor="start" fill="#777" font-weight="700">24I (MV.1)</text></g><g class="node" transform="translate(1260, 382.3529357910156)"><circle class="node" r="15" cursor="pointer" style="fill: rgb(255, 99, 92); stroke: rgb(231, 86, 80);"></circle><text dy=".35em" x="20" text-anchor="start" fill="#777" font-weight="700">25A (LP.8.1)</text></g><g class="node" transform="translate(1260, 573.5294189453125)"><circle class="node" r="15" cursor="pointer" style="fill: rgb(242, 85, 45); stroke: rgb(210, 74, 39);"></circle><text dy=".35em" x="20" text-anchor="start" fill="#777" font-weight="700">23G (XBB.1.5.70)</text></g><g class="node" transform="translate(1260, 726.4705810546875)"><circle class="node" r="15" cursor="pointer" style="fill: rgb(247, 143, 56); stroke: rgb(214, 124, 48);"></circle><text dy=".35em" x="-20" text-anchor="end" fill="#777" font-weight="700">23F (EG.5.1)</text></g><g class="node" transform="translate(1440, 76.47058868408203)"><circle class="node" r="15" cursor="pointer" style="fill: rgb(175, 42, 10); stroke: rgb(152, 36, 8);"></circle><text dy=".35em" x="-20" text-anchor="end" fill="#777" font-weight="700">24C (KP.3)</text></g><g class="node" transform="translate(1440, 152.94117736816406)"><circle class="node" r="15" cursor="pointer" style="fill: rgb(203, 55, 31); stroke: rgb(176, 47, 27);"></circle><text dy=".35em" x="20" text-anchor="start" fill="#777" font-weight="700">24F (XEC)</text></g><g class="node" transform="translate(1440, 229.41175842285156)"><circle class="node" r="15" cursor="pointer" style="fill: rgb(220, 66, 50); stroke: rgb(191, 57, 44);"></circle><text dy=".35em" x="20" text-anchor="start" fill="#777" font-weight="700">24G (KP.2.3)</text></g><g class="node" transform="translate(1440, 726.4705810546875)"><circle class="node" r="15" cursor="pointer" style="fill: rgb(245, 106, 49); stroke: rgb(212, 92, 43);"></circle><text dy=".35em" x="20" text-anchor="start" fill="#777" font-weight="700">23H (HK.3)</text></g><g class="node" transform="translate(1620, 76.47058868408203)"><circle class="node" r="15" cursor="pointer" style="fill: rgb(162, 39, 21); stroke: rgb(141, 34, 19);"></circle><text dy=".35em" x="20" text-anchor="start" fill="#777" font-weight="700">24E (KP.3.1.1)</text></g></svg>